# xmcd CD database file
#
# Track frame offsets:
#	150
#	12768
#	26663
#	39191
#	61151
#	76106
#	89924
#	102160
#	116698
#	127257
#	141831
#	157172
#	171098
#	186150
#	198854
#	216444
#	229733
#	246039
#	260192
#	281343
#
# Disc length: 3999 seconds
#
# Revision: 0
# Processed by: cddbd v1.5.2PL0 Copyright (c) Steve Scherf et al.
# Submitted via: CDex 1.51
#
DISCID=1e0f9d14
DTITLE=Dwight Yoakam - Gone
DYEAR=1900
DGENRE=Country
TTITLE0=Honky Tonk Man
TTITLE1=It Won't Hurt
TTITLE2=I'll Be Gone
TTITLE3=South Of Cincinatti
TTITLE4=Bury Me
TTITLE5=Guitars, Cadillacs
TTITLE6=Twenty Years
TTITLE7=Ring Of Fire
TTITLE8=Miner's Prayer
TTITLE9=Hertaches By The Number
TTITLE10=Sorry You Asked
TTITLE11=Near You
TTITLE12=Don't Be Sad
TTITLE13=Gone (That'll Be Me)
TTITLE14=Nothing
TTITLE15=Never Hold You
TTITLE16=This Much I Know
TTITLE17=Baby Why Not
TTITLE18=One More Night
TTITLE19=Heart Of Stone
EXTD=
EXTT0=
EXTT1=
EXTT2=
EXTT3=
EXTT4=
EXTT5=
EXTT6=
EXTT7=
EXTT8=
EXTT9=
EXTT10=
EXTT11=
EXTT12=
EXTT13=
EXTT14=
EXTT15=
EXTT16=
EXTT17=
EXTT18=
EXTT19=
PLAYORDER=
